:FULLY-SPECIFIED
:FORCE-ALL-JOINTS-BE-3DOF
:DEGREES
611
root 5.62118 16.6646 -3.76983 -0.328507 53.8346 -8.19279
lfemur -18.0453 24.4518 -21.9595
ltibia 40.6499 0 0
lfoot -32.5091 24.9857 0
ltoes 17.626 0 0
rfemur -53.0046 -17.8061 28.0629
rtibia 61.757 0 0
rfoot 8.05784 29.9392 0
rtoes -3.83107 0 0
lowerback 3.67897 -3.26587 -4.97404
upperback 0.177742 -4.53886 1.09359
thorax -1.40114 -2.23415 4.11129
lowerneck -8.2697 -9.51889 -0.620669
upperneck 14.8843 -13.5601 4.65537
head 6.24914 -6.23989 0.481006
lclavicle 9.63366e-14 1.00854e-14 0
lhumerus -22.3035 -41.5277 92.5326
lradius 56.2967 0 0
lwrist 20.67 0 0
lhand -10.6257 0.33443 0
lfingers 7.12502 0 0
lthumb 15.3811 29.7423 0
rclavicle 9.63366e-14 1.00854e-14 0
rhumerus 22.5813 3.91013 -72.3402
rradius 119.169 0 0
rwrist -58.6664 0 0
rhand -26.9344 -22.2411 0
rfingers 7.12502 0 0
rthumb -0.356705 -772.22 0
612
root 5.62417 16.6677 -3.76591 -0.141984 53.319 -8.12193
lfemur -17.9523 24.2947 -21.9525
ltibia 40.4886 0 0
lfoot -32.5172 24.7423 0
ltoes 17.8139 0 0
rfemur -52.8776 -17.8115 27.8854
rtibia 61.7739 0 0
rfoot 8.01328 29.3803 0
rtoes -3.82997 0 0
lowerback 3.58675 -3.26645 -4.93412
upperback 0.12578 -4.53558 1.11843
thorax -1.40435 -2.23186 4.11058
lowerneck -8.30874 -9.48141 -0.590293
upperneck 14.8621 -13.5099 4.63112
head 6.24425 -6.21613 0.472061
lclavicle 9.41283e-14 9.36419e-15 0
lhumerus -22.4175 -41.8331 92.8145
lradius 56.5725 0 0
lwrist 20.6782 0 0
lhand -10.6095 0.312113 0
lfingers 7.12502 0 0
lthumb 15.3967 29.7187 0
rclavicle 9.41283e-14 9.36419e-15 0
rhumerus 22.0602 3.95992 -72.1665
rradius 118.715 0 0
rwrist -58.392 0 0
rhand -26.9953 -22.3908 0
rfingers 7.12502 0 0
rthumb -0.415584 -772.369 0
613
root 5.62891 16.6726 -3.75971 0.153254 52.5028 -8.00976
lfemur -17.8051 24.0461 -21.9415
ltibia 40.2333 0 0
lfoot -32.5299 24.3569 0
ltoes 18.1113 0 0
rfemur -52.6765 -17.8201 27.6044
rtibia 61.8006 0 0
rfoot 7.94275 28.4958 0
rtoes -3.82824 0 0
lowerback 3.44079 -3.26737 -4.87093
upperback 0.043533 -4.53038 1.15775
thorax -1.40944 -2.22823 4.10945
lowerneck -8.37053 -9.42208 -0.542213
upperneck 14.8268 -13.4305 4.59274
head 6.23651 -6.17852 0.457903
lclavicle 9.0633e-14 8.22261e-15 0
lhumerus -22.598 -42.3164 93.2606
lradius 57.0091 0 0
lwrist 20.6912 0 0
lhand -10.5837 0.276789 0
lfingers 7.12502 0 0
lthumb 15.4215 29.6814 0
rclavicle 9.0633e-14 8.22261e-15 0
rhumerus 21.2354 4.03874 -71.8916
rradius 117.995 0 0
rwrist -57.9577 0 0
rhand -27.0918 -22.6278 0
rfingers 7.12502 0 0
rthumb -0.508782 -772.605 0
614
root 5.63518 16.6791 -3.75149 0.544418 51.4215 -7.86115
lfemur -17.6102 23.7168 -21.9269
ltibia 39.895 0 0
lfoot -32.5468 23.8463 0
ltoes 18.5054 0 0
rfemur -52.4101 -17.8315 27.2321
rtibia 61.836 0 0
rfoot 7.84931 27.3238 0
rtoes -3.82594 0 0
lowerback 3.24741 -3.26858 -4.78721
upperback -0.0654373 -4.52349 1.20985
thorax -1.41618 -2.22342 4.10796
lowerneck -8.45241 -9.34347 -0.478511
upperneck 14.7802 -13.3252 4.54188
head 6.22624 -6.12869 0.439144
lclavicle 8.6002e-14 6.71012e-15 0
lhumerus -22.8371 -42.9567 93.8516
lradius 57.5875 0 0
lwrist 20.7085 0 0
lhand -10.5496 0.229988 0
lfingers 7.12502 0 0
lthumb 15.4543 29.632 0
rclavicle 8.6002e-14 6.71012e-15 0
rhumerus 20.1426 4.14316 -71.5273
rradius 117.041 0 0
rwrist -57.3822 0 0
rhand -27.2197 -22.9417 0
rfingers 7.12502 0 0
rthumb -0.63226 -772.918 0
615
root 5.64279 16.687 -3.74152 1.01872 50.1103 -7.68095
lfemur -17.3737 23.3174 -21.9092
ltibia 39.4848 0 0
lfoot -32.5673 23.2272 0
ltoes 18.9832 0 0
rfemur -52.0871 -17.8453 26.7807
rtibia 61.8789 0 0
rfoot 7.73601 25.9027 0
rtoes -3.82315 0 0
lowerback 3.01292 -3.27005 -4.6857
upperback -0.197568 -4.51513 1.27302
thorax -1.42435 -2.21759 4.10615
lowerneck -8.55168 -9.24816 -0.40127
upperneck 14.7236 -13.1975 4.48022
head 6.2138 -6.06827 0.416398
lclavicle 8.03867e-14 4.87617e-15 0
lhumerus -23.1271 -43.7332 94.5683
lradius 58.2888 0 0
lwrist 20.7294 0 0
lhand -10.5083 0.173239 0
lfingers 7.12502 0 0
lthumb 15.4942 29.5721 0
rclavicle 8.03867e-14 4.87617e-15 0
rhumerus 18.8176 4.26978 -71.0856
rradius 115.885 0 0
rwrist -56.6845 0 0
rhand -27.3747 -23.3224 0
rfingers 7.12502 0 0
rthumb -0.781982 -773.298 0
616
root 5.65153 16.6961 -3.73007 1.56336 48.6047 -7.47403
lfemur -17.1022 22.8588 -21.8888
ltibia 39.0138 0 0
lfoot -32.5908 22.5162 0
ltoes 19.5319 0 0
rfemur -51.7162 -17.8611 26.2624
rtibia 61.9281 0 0
rfoot 7.6059 24.2708 0
rtoes -3.81995 0 0
lowerback 2.74366 -3.27174 -4.56914
upperback -0.349295 -4.50553 1.34555
thorax -1.43373 -2.2109 4.10408
lowerneck -8.66568 -9.1387 -0.312574
upperneck 14.6586 -13.051 4.40941
head 6.19951 -5.99888 0.390279
lclavicle 7.39386e-14 2.77022e-15 0
lhumerus -23.4601 -44.6248 95.3912
lradius 59.0941 0 0
lwrist 20.7534 0 0
lhand -10.4608 0.108074 0
lfingers 7.12502 0 0
lthumb 15.5399 29.5034 0
rclavicle 7.39386e-14 2.77022e-15 0
rhumerus 17.2961 4.41518 -70.5783
rradius 114.557 0 0
rwrist -55.8833 0 0
rhand -27.5527 -23.7596 0
rfingers 7.12502 0 0
rthumb -0.95391 -773.733 0
617
root 5.66118 16.7061 -3.71742 2.16556 46.94 -7.24525
lfemur -16.8021 22.3517 -21.8663
ltibia 38.493 0 0
lfoot -32.6168 21.7301 0
ltoes 20.1385 0 0
rfemur -51.3061 -17.8786 25.6892
rtibia 61.9826 0 0
rfoot 7.46204 22.4665 0
rtoes -3.81642 0 0
lowerback 2.44595 -3.27361 -4.44025
upperback -0.517056 -4.49492 1.42576
thorax -1.44411 -2.2035 4.10178
lowerneck -8.79172 -9.01769 -0.214504
upperneck 14.5867 -12.8889 4.33112
head 6.18372 -5.92217 0.3614
lclavicle 6.68091e-14 4.4173e-16 0
lhumerus -23.8283 -45.6106 96.3011
lradius 59.9846 0 0
lwrist 20.7799 0 0
lhand -10.4083 0.036023 0
lfingers 7.12502 0 0
lthumb 15.5904 29.4273 0
rclavicle 6.68091e-14 4.4173e-16 0
rhumerus 15.6137 4.57594 -70.0175
rradius 113.089 0 0
rwrist -54.9974 0 0
rhand -27.7495 -24.2429 0
rfingers 7.12502 0 0
rthumb -1.14401 -774.215 0
618
root 5.67156 16.7169 -3.70382 2.81253 45.1516 -6.99945
lfemur -16.4796 21.807 -21.8422
ltibia 37.9335 0 0
lfoot -32.6448 20.8856 0
ltoes 20.7903 0 0
rfemur -50.8654 -17.8974 25.0735
rtibia 62.0411 0 0
rfoot 7.30749 20.5281 0
rtoes -3.81261 0 0
lowerback 2.1261 -3.27562 -4.30179
upperback -0.697287 -4.48353 1.51192
thorax -1.45526 -2.19554 4.09931
lowerneck -8.92714 -8.88767 -0.109144
upperneck 14.5095 -12.7148 4.24701
head 6.16675 -5.83975 0.330374
lclavicle 5.91497e-14 -2.05986e-15 0
lhumerus -24.2239 -46.6697 97.2787
lradius 60.9412 0 0
lwrist 20.8085 0 0
lhand -10.3519 -0.0413842 0
lfingers 7.12502 0 0
lthumb 15.6448 29.3456 0
rclavicle 5.91497e-14 -2.05986e-15 0
rhumerus 13.8063 4.74865 -69.415
rradius 111.511 0 0
rwrist -54.0457 0 0
rhand -27.961 -24.7622 0
rfingers 7.12502 0 0
rthumb -1.34823 -774.732 0
619
root 5.68245 16.7282 -3.68955 3.49147 43.2747 -6.74151
lfemur -16.1411 21.2353 -21.8168
ltibia 37.3464 0 0
lfoot -32.6741 19.9994 0
ltoes 21.4742 0 0
rfemur -50.4031 -17.9172 24.4273
rtibia 62.1026 0 0
rfoot 7.14531 18.4938 0
rtoes -3.80863 0 0
lowerback 1.79044 -3.27772 -4.15648
upperback -0.886426 -4.47157 1.60235
thorax -1.46695 -2.1872 4.09672
lowerneck -9.06924 -8.75123 0.00142345
upperneck 14.4285 -12.5321 4.15875
head 6.14893 -5.75326 0.297814
lclavicle 5.11116e-14 -4.68508e-15 0
lhumerus -24.639 -47.7811 98.3046
lradius 61.9451 0 0
lwrist 20.8384 0 0
lhand -10.2927 -0.122617 0
lfingers 7.12502 0 0
lthumb 15.7018 29.2599 0
rclavicle 5.11116e-14 -4.68508e-15 0
rhumerus 11.9096 4.9299 -68.7827
rradius 109.856 0 0
rwrist -53.0469 0 0
rhand -28.1829 -25.3071 0
rfingers 7.12502 0 0
rthumb -1.56256 -775.275 0
620
root 5.69365 16.7399 -3.67488 4.1896 41.3448 -6.47628
lfemur -15.7931 20.6475 -21.7908
ltibia 36.7427 0 0
lfoot -32.7042 19.0881 0
ltoes 22.1775 0 0
rfemur -49.9276 -17.9375 23.7629
rtibia 62.1657 0 0
rfoot 6.97853 16.4021 0
rtoes -3.80452 0 0
lowerback 1.4453 -3.27989 -4.00707
upperback -1.08091 -4.45927 1.69532
thorax -1.47898 -2.17862 4.09406
lowerneck -9.21536 -8.61094 0.115115
upperneck 14.3451 -12.3442 4.06799
head 6.13062 -5.66433 0.264335
lclavicle 4.28465e-14 -7.38448e-15 0
lhumerus -25.0658 -48.9239 99.3594
lradius 62.9774 0 0
lwrist 20.8692 0 0
lhand -10.2318 -0.206146 0
lfingers 7.12502 0 0
lthumb 15.7604 29.1717 0
rclavicle 4.28465e-14 -7.38448e-15 0
rhumerus 9.95928 5.11628 -68.1325
rradius 108.154 0 0
rwrist -52.0199 0 0
rhand -28.4111 -25.8675 0
rfingers 7.12502 0 0
rthumb -1.78293 -775.834 0
621
root 5.70494 16.7516 -3.66008 4.89412 39.3973 -6.20862
lfemur -15.442 20.0543 -21.7644
ltibia 36.1334 0 0
lfoot -32.7347 18.1685 0
ltoes 22.8873 0 0
rfemur -49.4478 -17.9579 23.0924
rtibia 62.2295 0 0
rfoot 6.81024 14.2912 0
rtoes -3.80039 0 0
lowerback 1.097 -3.28207 -3.85628
upperback -1.27718 -4.44685 1.78916
thorax -1.49112 -2.16996 4.09137
lowerneck -9.36283 -8.46935 0.229848
upperneck 14.2611 -12.1546 3.97639
head 6.11214 -5.57458 0.230548
lclavicle 3.45056e-14 -1.01086e-14 0
lhumerus -25.4965 -50.0773 100.424
lradius 64.0191 0 0
lwrist 20.9002 0 0
lhand -10.1704 -0.290439 0
lfingers 7.12502 0 0
lthumb 15.8195 29.0827 0
rclavicle 3.45056e-14 -1.01086e-14 0
rhumerus 7.9911 5.30435 -67.4764
rradius 106.436 0 0
rwrist -50.9836 0 0
rhand -28.6414 -26.4329 0
rfingers 7.12502 0 0
rthumb -2.00533 -776.397 0
622
root 5.71614 16.7633 -3.64541 5.59225 37.4674 -5.94339
lfemur -15.094 19.4665 -21.7384
ltibia 35.5297 0 0
lfoot -32.7648 17.2572 0
ltoes 23.5906 0 0
rfemur -48.9723 -17.9782 22.428
rtibia 62.2926 0 0
rfoot 6.64346 12.1995 0
rtoes -3.79628 0 0
lowerback 0.751858 -3.28424 -3.70687
upperback -1.47166 -4.43455 1.88213
thorax -1.50315 -2.16138 4.08871
lowerneck -9.50895 -8.32906 0.34354
upperneck 14.1777 -11.9667 3.88563
head 6.09383 -5.48565 0.197069
lclavicle 2.62405e-14 -1.2808e-14 0
lhumerus -25.9233 -51.2201 101.479
lradius 65.0514 0 0
lwrist 20.931 0 0
lhand -10.1095 -0.373968 0
lfingers 7.12502 0 0
lthumb 15.8781 28.9945 0
rclavicle 2.62405e-14 -1.2808e-14 0
rhumerus 6.04078 5.49073 -66.8262
rradius 104.734 0 0
rwrist -49.9566 0 0
rhand -28.8696 -26.9933 0
rfingers 7.12502 0 0
rthumb -2.22571 -776.956 0
623
root 5.72703 16.7746 -3.63114 6.27119 35.5905 -5.68545
lfemur -14.7555 18.8948 -21.713
ltibia 34.9426 0 0
lfoot -32.7941 16.371 0
ltoes 24.2745 0 0
rfemur -48.51 -17.998 21.7818
rtibia 62.3541 0 0
rfoot 6.48128 10.1653 0
rtoes -3.7923 0 0
lowerback 0.416202 -3.28634 -3.56156
upperback -1.6608 -4.42259 1.97256
thorax -1.51484 -2.15304 4.08612
lowerneck -9.65105 -8.19262 0.454107
upperneck 14.0967 -11.784 3.79737
head 6.07601 -5.39916 0.164509
lclavicle 1.82024e-14 -1.54332e-14 0
lhumerus -26.3384 -52.3315 102.505
lradius 66.0553 0 0
lwrist 20.9609 0 0
lhand -10.0504 -0.455201 0
lfingers 7.12502 0 0
lthumb 15.9351 28.9088 0
rclavicle 1.82024e-14 -1.54332e-14 0
rhumerus 4.14406 5.67198 -66.1939
rradius 103.079 0 0
rwrist -48.9578 0 0
rhand -29.0915 -27.5382 0
rfingers 7.12502 0 0
rthumb -2.44003 -777.499 0
624
root 5.73741 16.7854 -3.61754 6.91815 33.8021 -5.43965
lfemur -14.433 18.3501 -21.6889
ltibia 34.3831 0 0
lfoot -32.8221 15.5265 0
ltoes 24.9263 0 0
rfemur -48.0693 -18.0168 21.1661
rtibia 62.4126 0 0
rfoot 6.32673 8.22685 0
rtoes -3.78849 0 0
lowerback 0.0963544 -3.28835 -3.4231
upperback -1.84103 -4.4112 2.05872
thorax -1.52599 -2.14508 4.08365
lowerneck -9.78647 -8.0626 0.559467
upperneck 14.0195 -11.6099 3.71326
head 6.05904 -5.31674 0.133483
lclavicle 1.0543e-14 -1.79348e-14 0
lhumerus -26.734 -53.3906 103.482
lradius 67.0119 0 0
lwrist 20.9895 0 0
lhand -9.99395 -0.532608 0
lfingers 7.12502 0 0
lthumb 15.9895 28.8271 0
rclavicle 1.0543e-14 -1.79348e-14 0
rhumerus 2.33666 5.84469 -65.5914
rradius 101.502 0 0
rwrist -48.0061 0 0
rhand -29.303 -28.0575 0
rfingers 7.12502 0 0
rthumb -2.64425 -778.016 0
